<svg xmlns="http://www.w3.org/2000/svg" viewBox="0 0 500 500"><g id="freepik--background-complete--inject-42"><rect y="382.4" width="500" height="0.25" style="fill:#ebebeb"></rect><rect x="52.46" y="391.92" width="33.12" height="0.25" style="fill:#ebebeb"></rect><rect x="153.44" y="389.21" width="26.39" height="0.25" style="fill:#ebebeb"></rect><rect x="89.97" y="397.82" width="45.92" height="0.25" style="fill:#ebebeb"></rect><rect x="428.3" y="399.53" width="21.6" height="0.25" style="fill:#ebebeb"></rect><rect x="391.47" y="399.53" width="31.97" height="0.25" style="fill:#ebebeb"></rect><rect x="277.21" y="395.31" width="55.12" height="0.25" style="fill:#ebebeb"></rect><path d="M237,337.8H43.91a5.71,5.71,0,0,1-5.7-5.71V60.66A5.71,5.71,0,0,1,43.91,55H237a5.71,5.71,0,0,1,5.71,5.71V332.09A5.71,5.71,0,0,1,237,337.8ZM43.91,55.2a5.46,5.46,0,0,0-5.45,5.46V332.09a5.46,5.46,0,0,0,5.45,5.46H237a5.47,5.47,0,0,0,5.46-5.46V60.66A5.47,5.47,0,0,0,237,55.2Z" style="fill:#ebebeb"></path><path d="M453.31,337.8H260.21a5.72,5.72,0,0,1-5.71-5.71V60.66A5.72,5.72,0,0,1,260.21,55h193.1A5.71,5.71,0,0,1,459,60.66V332.09A5.71,5.71,0,0,1,453.31,337.8ZM260.21,55.2a5.47,5.47,0,0,0-5.46,5.46V332.09a5.47,5.47,0,0,0,5.46,5.46h193.1a5.47,5.47,0,0,0,5.46-5.46V60.66a5.47,5.47,0,0,0-5.46-5.46Z" style="fill:#ebebeb"></path><rect x="274.98" y="91.25" width="148.38" height="156.58" style="fill:#e6e6e6"></rect><path d="M439.27,86.18H265.38a1.48,1.48,0,0,0-1.48,1.48h0a1.47,1.47,0,0,0,1.48,1.47H439.27a1.47,1.47,0,0,0,1.47-1.47h0A1.47,1.47,0,0,0,439.27,86.18Z" style="fill:#e6e6e6"></path><rect x="277.92" y="91.25" width="151.74" height="156.58" style="fill:#f0f0f0"></rect><rect x="274.98" y="247.83" width="148.38" height="5.85" style="fill:#e6e6e6"></rect><rect x="288.41" y="247.83" width="151.74" height="5.85" style="fill:#f0f0f0"></rect><rect x="284.32" y="102.49" width="138.95" height="134.11" transform="translate(523.34 -184.25) rotate(90)" style="fill:#fafafa"></rect><polygon points="317.18 239.02 368.92 100.06 393.34 100.06 341.61 239.02 317.18 239.02" style="fill:#fff"></polygon><polygon points="346.85 239.02 398.59 100.06 408.11 100.06 356.37 239.02 346.85 239.02" style="fill:#fff"></polygon><rect x="350.81" y="168.98" width="138.95" height="1.12" transform="translate(589.83 -250.75) rotate(90)" style="fill:#e6e6e6"></rect><g style="opacity:0.6000000000000001"><polygon points="283.1 224.98 264.47 224.98 274.51 83.55 293.14 83.55 283.1 224.98" style="fill:#f0f0f0"></polygon><polygon points="290.36 224.98 275.84 224.98 285.88 83.55 300.4 83.55 290.36 224.98" style="fill:#e6e6e6"></polygon><polygon points="301.73 224.98 283.1 224.98 293.14 83.55 311.77 83.55 301.73 224.98" style="fill:#f0f0f0"></polygon><polygon points="308.99 224.98 294.47 224.98 304.52 83.55 319.03 83.55 308.99 224.98" style="fill:#e6e6e6"></polygon><polygon points="320.36 224.98 301.73 224.98 311.77 83.55 330.41 83.55 320.36 224.98" style="fill:#f0f0f0"></polygon></g><g style="opacity:0.6000000000000001"><polygon points="426.59 224.98 437.12 224.98 431.45 83.55 420.92 83.55 426.59 224.98" style="fill:#f0f0f0"></polygon><polygon points="422.49 224.98 430.69 224.98 425.02 83.55 416.81 83.55 422.49 224.98" style="fill:#e6e6e6"></polygon><polygon points="416.06 224.98 426.59 224.98 420.92 83.55 410.39 83.55 416.06 224.98" style="fill:#f0f0f0"></polygon><polygon points="411.96 224.98 420.16 224.98 414.49 83.55 406.29 83.55 411.96 224.98" style="fill:#e6e6e6"></polygon><polygon points="405.53 224.98 416.06 224.98 410.39 83.55 399.86 83.55 405.53 224.98" style="fill:#f0f0f0"></polygon></g><path d="M352.51,227.17s.54,20.66,21,20.66,21-20.66,21-20.66Z" style="fill:#e6e6e6"></path><path d="M375.44,230.2a.46.46,0,0,1-.23,0c-.68-.35-6.64-3.47-6.23-6.53a7.26,7.26,0,0,1,1.29-3c.83-1.31,1.43-2.25.39-3.67-1.59-2.17.15-3.94,1.68-5.5a11.15,11.15,0,0,0,1.89-2.28c.63-1.18.13-2.08-.58-3.32a7.87,7.87,0,0,1-1.31-3.87,8.9,8.9,0,0,1,4.26-7.75.5.5,0,0,1,.68.2.5.5,0,0,1-.19.68,7.86,7.86,0,0,0-3.75,6.85,7,7,0,0,0,1.18,3.4c.73,1.29,1.48,2.62.59,4.28a11.51,11.51,0,0,1-2.06,2.51c-1.66,1.69-2.62,2.8-1.58,4.21,1.44,2,.49,3.47-.36,4.8a6.4,6.4,0,0,0-1.14,2.55c-.26,2,4,4.65,5.69,5.51a.49.49,0,0,1,.22.67A.5.5,0,0,1,375.44,230.2Z" style="fill:#e6e6e6"></path><path d="M379.08,181.5s-8,8.58-2.58,14C386.31,195.5,379.08,181.5,379.08,181.5Z" style="fill:#f0f0f0"></path><path d="M382.6,203s-8.27-.53-8.8,4.85C378.19,213.21,382.6,203,382.6,203Z" style="fill:#f0f0f0"></path><path d="M366.65,210s4.9,2.13,3.63,5.38C366.18,217.18,366.65,210,366.65,210Z" style="fill:#f0f0f0"></path><rect x="169.72" y="236.75" width="21.59" height="58.92" style="fill:#f0f0f0"></rect><polygon points="155.75 295.67 108.64 295.67 102.81 231.67 149.92 231.67 155.75 295.67" style="fill:#e6e6e6"></polygon><polygon points="158.19 295.67 111.08 295.67 105.25 231.67 152.36 231.67 158.19 295.67" style="fill:#f0f0f0"></polygon><polygon points="117.52 288.58 112.98 238.75 145.92 238.75 150.46 288.58 117.52 288.58" style="fill:#fff"></polygon><rect x="281.35" y="295.67" width="7.79" height="86.73" style="fill:#e6e6e6"></rect><rect x="286.19" y="295.67" width="5.41" height="86.73" style="fill:#f0f0f0"></rect><rect x="131.53" y="295.67" width="161.75" height="9.57" transform="translate(424.8 600.91) rotate(180)" style="fill:#f0f0f0"></rect><rect x="120.25" y="305.24" width="7.79" height="77.16" style="fill:#e6e6e6"></rect><rect x="125.09" y="305.24" width="5.41" height="77.16" style="fill:#f0f0f0"></rect><rect x="70.95" y="305.24" width="7.79" height="77.16" style="fill:#e6e6e6"></rect><rect x="75.79" y="305.24" width="5.41" height="77.16" style="fill:#f0f0f0"></rect><rect x="232.05" y="305.24" width="7.79" height="77.16" style="fill:#e6e6e6"></rect><rect x="236.89" y="305.24" width="5.41" height="77.16" style="fill:#f0f0f0"></rect><rect x="70.95" y="295.67" width="60.58" height="9.57" style="fill:#e6e6e6"></rect><rect x="86.97" y="74.77" width="107.2" height="136.42" style="fill:#e6e6e6"></rect><rect x="94.77" y="74.77" width="107.2" height="136.42" style="fill:#f5f5f5"></rect><rect x="103.74" y="83.76" width="89.24" height="118.46" style="fill:#fff"></rect><path d="M161.16,98.19H114.61V176c9.63,2.38,19.32-.69,24.6-12.88,4.55-10.5-.36-23,2-33.94,2.7-12.61,13-16.79,18.35-27.15A30.71,30.71,0,0,0,161.16,98.19Z" style="fill:#f0f0f0"></path><path d="M182.11,98.19h-2.65c-7.09,8.73-20.5,19.46-24.12,30.93-5.74,18.17,9.77,42.56,26.77,43.66Z" style="fill:#f0f0f0"></path><path d="M144.63,172.31c-9,3.5-15.8,9-21.89,15.48h55.83C174.84,175.35,159.8,166.41,144.63,172.31Z" style="fill:#f0f0f0"></path></g><g id="freepik--Shadow--inject-42"><ellipse id="freepik--path--inject-42" cx="250" cy="416.24" rx="193.89" ry="11.32" style="fill:#f5f5f5"></ellipse></g><g id="freepik--Mirror--inject-42"><polygon points="139.51 183.98 157.74 183.98 141.41 412.73 123.19 412.73 139.51 183.98" style="fill:#6AE16C"></polygon><polygon points="139.51 183.98 157.74 183.98 141.41 412.73 123.19 412.73 139.51 183.98" style="opacity:0.4"></polygon><polygon points="235.47 412.73 139.17 412.73 125.96 105.03 222.26 105.03 235.47 412.73" style="fill:#6AE16C"></polygon><polygon points="235.47 412.73 139.17 412.73 125.96 105.03 222.26 105.03 235.47 412.73" style="opacity:0.30000000000000004"></polygon><polygon points="237.47 412.73 141.17 412.73 127.96 105.03 224.26 105.03 237.47 412.73" style="fill:#6AE16C"></polygon><polygon points="146.92 406.73 134.23 111.03 218.51 111.03 231.2 406.73 146.92 406.73" style="fill:#fafafa;opacity:0.9"></polygon><path d="M202.08,405.61c2.89-.94,1.92-3.86.58-3.71-5,.53-11,1-14.35.67a1.86,1.86,0,0,0,1.09-.76.92.92,0,0,0-.09-.95.64.64,0,0,0-.53-.34c-.53,0-1.23.55-1.79,1.13a2.72,2.72,0,0,0,.09-1.91.66.66,0,0,0-.76-.3.85.85,0,0,0-.62.45,3.32,3.32,0,0,0,.1,2.23,1.64,1.64,0,0,0-.5.08l-.33.1-2.36-9,3.55-1-.27-5.71-1.31.46c-3.06-16.29-12.33-66.07-15-85.23-3-21.05-13-81.4-13-81.4a169.08,169.08,0,0,0,2.31-34.85l0,0,.57.65h0l.78-.58c.4.46.8.93,1.22,1.39a32.66,32.66,0,0,0,7.52,6.2l1.15.65a10.21,10.21,0,0,0,1.9.77,10.36,10.36,0,0,0,3.94.37,14.09,14.09,0,0,0,5.84-2.14,31.21,31.21,0,0,0,7.1-6.44,70.27,70.27,0,0,0,8.9-13.94,24.44,24.44,0,0,0,3.92-5.7l2.1-1.75a2.7,2.7,0,0,0,1.49,1.1c2,.54,4.2-1.39,5-4.31.95-3.49-1.14-4.62-2.47-5a3.34,3.34,0,0,0-3.73,1.07,2.85,2.85,0,0,0-2.58-.69c-.28-1.44-1.38-2.48-3.26-3-2.73-.74-4.63.27-5.33,2.86a4.76,4.76,0,0,0-.1.52c-.8,0-5.73-.36-7.42-.43a.16.16,0,0,0-.17.15.17.17,0,0,0,.12.17h0c1.66.07,6.47.37,7.37.43a5.16,5.16,0,0,0,2,5.14l-2.1,6.73c-1.43,1.74-2.92,3.51-4.44,5.17a76.21,76.21,0,0,1-5.48,5.58,25.19,25.19,0,0,1-5.6,4.07,4,4,0,0,1-1.93.52c-.15,0-.16-.06-.15-.09s0,0,0,0l-.62-.42a26.55,26.55,0,0,1-5.5-5.46l2.23-1.67s-.33-.65-.91-1.74c-.41-.75-.94-1.72-1.56-2.82-1.89-3.36-3.83-8.77-7.55-12a22.34,22.34,0,0,0-7.51-4.6h0l-.49-.13-.12,0c-.29-.08-.58-.16-.86-.22-.67-.16-1.54-.36-2.59-.57-1.77-.34-3.94-.71-6.19-1h0l-.81-.08-.14,0c-.26,0-.54-.05-.82-.06-4.88-1.17-5.74-4.19-5.41-7.52a18.22,18.22,0,0,1,.35-2.26,9.72,9.72,0,0,0,9.42-9,23.93,23.93,0,0,0,0-4,1.91,1.91,0,0,0,1-.88c.88-1.56.05-4.39-.24-5.28a.24.24,0,0,0,.21-.24.25.25,0,0,0-.25-.25,20.62,20.62,0,0,0-2.15.14l-.07-.19v0a.36.36,0,0,0,.22.09.3.3,0,0,0,.19-.07.35.35,0,0,0,.1-.48,4.24,4.24,0,0,0-.57-.66,13.31,13.31,0,0,0-1-4A9.31,9.31,0,0,0,147,111a10.41,10.41,0,0,1-2.33,6.3,10,10,0,0,0,1-1.87,7,7,0,0,0,.12-4.44H134.23l7.68,179.07c.1-3.28.18-6.91.23-10.75,2.38,11.26,4.66,21.74,6.34,28.86,4.48,19,18.56,68.64,22.78,83.49l-1.15.4,2,4.12,3.33-.92.54,2.07h0l1.9,7.22-.55.18a.52.52,0,0,0-.36.65l.33,1.31H198.5C200,406.28,201.26,405.88,202.08,405.61Zm5.71-248.36c1.48.4,3.07,1.53,2.24,4.59-.75,2.74-2.82,4.57-4.61,4.08a2.49,2.49,0,0,1-1.33-1l1.75-1.46-2.41-2.94c0-.16.06-.31.1-.47C204.36,157,206.31,156.84,207.79,157.25Zm-6.17.38a2.56,2.56,0,0,1,2.34.64,5.81,5.81,0,0,0-.74,1.71c0,.08,0,.15-.05.23l-1.06-1.3-.61.27A4.93,4.93,0,0,0,201.62,157.63Zm-8.34-.36c.83-3.06,3.14-3.12,4.94-2.63a3.73,3.73,0,0,1,3.07,2.88h0a4.69,4.69,0,0,1-.14,1.81l-6,2.69-.25.81A5.08,5.08,0,0,1,193.28,157.27Zm-46.8-31.87c.26.78,1.12,3.65.28,5.14a1.66,1.66,0,0,1-.84.75,26.32,26.32,0,0,0-1.2-5.78C145.28,125.45,145.87,125.41,146.48,125.4Zm39.68,276.73a3.34,3.34,0,0,1-.16-2.08.52.52,0,0,1,.31-.25l.08,0c.24,0,.34,0,.39.13a3.23,3.23,0,0,1-.37,2.26Zm.7.17c.63-.72,1.44-1.47,1.9-1.44a.32.32,0,0,1,.26.17.64.64,0,0,1,.07.63c-.17.33-.75.61-1.62.79A4.54,4.54,0,0,1,186.86,402.3Z" style="fill:#6AE16C;opacity:0.1"></path><polygon points="167.09 406.73 158.43 406.73 198.34 111.03 207 111.03 167.09 406.73" style="fill:#fafafa;opacity:0.30000000000000004"></polygon><polygon points="174.31 406.73 170.65 406.73 210.56 111.03 214.21 111.03 174.31 406.73" style="fill:#fafafa;opacity:0.30000000000000004"></polygon></g><g id="freepik--Character--inject-42"><polygon points="279.53 405.42 272.48 403.14 276.86 386.51 283.91 388.8 279.53 405.42" style="fill:#ce7a63"></polygon><path d="M272.37,402.2l7.92,2.57a.53.53,0,0,1,.37.65L279,411.81a1.32,1.32,0,0,1-1.64.86c-2.75-.94-4-1.53-7.49-2.67-2.15-.69-11.33-3.43-14.29-4.39s-1.93-3.86-.59-3.71c6,.63,13.52,1.26,16,.34A2.06,2.06,0,0,1,272.37,402.2Z" style="fill:#263238"></path><polygon points="283.91 388.8 276.86 386.51 274.6 395.08 281.65 397.37 283.91 388.8" style="opacity:0.2"></polygon><path d="M301.1,220.47s-10,60.35-13,81.4c-3.25,23.05-16,90.47-16,90.47L285.19,396s18.7-65.34,24-87.75c5.75-24.32,18.41-87.74,18.41-87.74Z" style="fill:#263238"></path><path d="M317.17,245.22c-5.12,12.79-5.7,34.53-3.62,43.44,3.14-14.63,6.74-32.13,9.51-45.74C322.07,239.43,320.28,237.44,317.17,245.22Z" style="opacity:0.30000000000000004"></path><polygon points="285.52 396.22 271.5 392.35 271.77 386.64 287.56 392.1 285.52 396.22" style="fill:#6AE16C"></polygon><path d="M269.47,402.62a8.93,8.93,0,0,0,2,.35.16.16,0,0,0,.17-.08.18.18,0,0,0,0-.19c-.18-.23-1.73-2.24-2.7-2.18a.65.65,0,0,0-.54.34.94.94,0,0,0-.08.95A2,2,0,0,0,269.47,402.62Zm1.59,0c-1.34-.16-2.26-.5-2.48-.93a.62.62,0,0,1,.07-.63.32.32,0,0,1,.26-.17C269.43,400.83,270.41,401.8,271.06,402.59Z" style="fill:#6AE16C"></path><path d="M271.39,403h.09a.21.21,0,0,0,.13-.1c0-.08.85-2.06.36-3a.85.85,0,0,0-.62-.45.66.66,0,0,0-.76.3c-.41.72.16,2.53.73,3.18Zm0-3.17a.5.5,0,0,1,.3.25,3.76,3.76,0,0,1-.26,2.39,3.51,3.51,0,0,1-.51-2.53c.05-.09.14-.18.39-.13Z" style="fill:#6AE16C"></path><path d="M309,163.23c-.24.89-.44,1.53-.68,2.28s-.48,1.41-.74,2.11c-.51,1.4-1.07,2.77-1.66,4.13a63.57,63.57,0,0,1-4.17,8,48,48,0,0,1-5.56,7.4,32.66,32.66,0,0,1-7.52,6.2l-1.14.65a10.5,10.5,0,0,1-1.9.77,10.37,10.37,0,0,1-3.94.37,14.09,14.09,0,0,1-5.84-2.14,31.06,31.06,0,0,1-7.11-6.44,71.15,71.15,0,0,1-9.26-14.68l4.76-2.88c1.66,2,3.4,4.15,5.19,6.1a76.32,76.32,0,0,0,5.49,5.58,25.19,25.19,0,0,0,5.6,4.07,4,4,0,0,0,1.93.52c.15,0,.16-.06.14-.09a0,0,0,0,1,0,0l.62-.42c3.52-2.5,6.51-6.39,9-10.69a71.06,71.06,0,0,0,3.36-6.77c.51-1.16,1-2.34,1.43-3.54l.64-1.78c.2-.57.43-1.24.56-1.67Z" style="fill:#ce7a63"></path><path d="M286.47,177.55l11.71,8.75,1.2-1.35c.54-.64,1.24-1.47,2.05-2.45,4.55-5.54,11.2-15.67,11.26-20.63.08-7.39-7.6-8.48-16.21-.91-3.71,3.26-5.65,8.67-7.54,12-.63,1.1-1.15,2.07-1.56,2.82C286.8,176.9,286.47,177.55,286.47,177.55Z" style="fill:#6AE16C"></path><polygon points="335.04 408.67 327.63 408.67 326.67 391.5 334.08 391.5 335.04 408.67" style="fill:#ce7a63"></polygon><path d="M327.24,407.81h8.33a.53.53,0,0,1,.55.51l.4,6.59a1.31,1.31,0,0,1-1.3,1.31c-2.9-.05-4.28-.22-7.94-.22-2.26,0-11.84.24-14.95.24s-3-3.08-1.7-3.36c5.91-1.25,13.24-3,15.33-4.61A2.09,2.09,0,0,1,327.24,407.81Z" style="fill:#263238"></path><polygon points="334.08 391.5 326.66 391.5 327.16 400.35 334.58 400.35 334.08 391.5" style="opacity:0.2"></polygon><path d="M315.58,220.09s-.71,56.66.49,77.88c1.32,23.25,7.91,100.25,7.91,100.25h13.58s-.4-75.13.42-98.14c.88-25,3.18-80,3.18-80Z" style="fill:#263238"></path><polygon points="338.11 398.22 323.44 398.22 322.62 393.06 338.82 393.87 338.11 398.22" style="fill:#6AE16C"></polygon><path d="M324.61,409.1a9.6,9.6,0,0,0,2-.26.2.2,0,0,0,.13-.14.18.18,0,0,0-.07-.17c-.24-.17-2.34-1.6-3.24-1.25a.68.68,0,0,0-.41.49,1,1,0,0,0,.22.94A2,2,0,0,0,324.61,409.1Zm1.5-.51c-1.32.26-2.3.22-2.65-.13a.62.62,0,0,1-.12-.61.32.32,0,0,1,.19-.25C324,407.41,325.25,408,326.11,408.59Z" style="fill:#6AE16C"></path><path d="M326.55,408.84l.08,0a.19.19,0,0,0,.09-.14c0-.09.17-2.22-.57-2.94a.84.84,0,0,0-.74-.24.66.66,0,0,0-.62.52c-.17.81.93,2.36,1.67,2.8Zm-1-3a.54.54,0,0,1,.38.15,3.88,3.88,0,0,1,.48,2.35c-.64-.54-1.38-1.72-1.27-2.25,0-.1.08-.22.33-.25Z" style="fill:#6AE16C"></path><path d="M312.76,162.73c-2.64-1.75-4.47-.23-9.7,3.59-2.34,1.71-7.55,15.85-7.13,18.3l2.26,1.68S312.82,170.09,312.76,162.73Z" style="opacity:0.30000000000000004"></path><path d="M265.08,170.18,262.53,162l-6.62,4.85s3.62,7.26,6.07,6.61Z" style="fill:#ce7a63"></path><polygon points="255.56 158.91 251.83 163.47 255.91 166.88 262.53 162.03 255.56 158.91" style="fill:#ce7a63"></polygon><path d="M272.26,157.59h0c-1.83.07-7.48.43-7.54.44a.16.16,0,0,1,0-.32c.06,0,5.71-.37,7.54-.44a.16.16,0,0,1,.17.15A.16.16,0,0,1,272.26,157.59Z" style="fill:#263238"></path><path d="M261.9,163.62c-2.33.64-4.88-1.21-5.68-4.13-.7-2.58.41-4.42,3.15-5.17s4.62.27,5.33,2.86C265.49,160.09,264.24,163,261.9,163.62Zm-2.45-9c-1.79.48-3.75,1.71-2.92,4.77.75,2.74,3.12,4.49,5.29,3.9s3.31-3.3,2.57-6C263.55,154.21,261.24,154.15,259.45,154.64Z" style="fill:#263238"></path><path d="M252.33,166.23c-2,.54-4.21-1.4-5-4.31-1-3.49,1.13-4.62,2.46-5s3.7-.45,4.66,3C255.24,162.89,254.29,165.7,252.33,166.23Zm-2.45-9c-1.49.4-3.08,1.53-2.24,4.59.75,2.74,2.81,4.57,4.6,4.08s2.65-3.12,1.9-5.86C253.3,157,251.36,156.84,249.88,157.25Z" style="fill:#263238"></path><path d="M256.26,157.65h-.07a2.6,2.6,0,0,0-2.58.7.17.17,0,0,1-.23,0,.15.15,0,0,1,0-.23,2.93,2.93,0,0,1,2.88-.79.17.17,0,0,1,.12.2A.18.18,0,0,1,256.26,157.65Z" style="fill:#263238"></path><path d="M301.1,220.47h39.65c.28-3.54-.54-15.06.07-29.73a188.37,188.37,0,0,1,3.94-32.34c.18-.8.36-1.59.55-2.39,0,0-2-.41-4.89-.83-2.39-.35-5.39-.71-8.33-.85a147.89,147.89,0,0,0-16.85,0c-2.59.24-5.12.67-7.14,1.06-2.58.52-4.1,1-4.1,1S294.23,178.78,301.1,220.47Z" style="fill:#6AE16C"></path><path d="M340.82,190.74a188.37,188.37,0,0,1,3.94-32.34c-2.65-.23-7.18,0-7.93,4.31C336,167.31,337,178.13,340.82,190.74Z" style="opacity:0.30000000000000004"></path><path d="M347.6,160.75c.79,1.21,1.44,2.27,2.1,3.43s1.28,2.28,1.9,3.44c1.23,2.31,2.38,4.67,3.43,7.09a73.42,73.42,0,0,1,5,15.34l.1.51.05.26.07.41a11.48,11.48,0,0,1,.13,1.7,14,14,0,0,1-.31,2.81,23.81,23.81,0,0,1-1.46,4.46,47.67,47.67,0,0,1-4,7.21,84.65,84.65,0,0,1-9.88,12.13l-4.39-3.43c2.43-4.22,4.84-8.6,6.86-12.89a48.9,48.9,0,0,0,2.53-6.34,14.2,14.2,0,0,0,.59-2.78,4.72,4.72,0,0,0,0-.93c0-.09,0-.17-.06-.18s0,0,0-.05l-.06-.2-.12-.4a65.26,65.26,0,0,0-2.25-6.51c-.88-2.16-1.87-4.33-2.89-6.47s-2.15-4.28-3.28-6.4q-.86-1.59-1.74-3.15l-1.76-3Z" style="fill:#ce7a63"></path><path d="M335.47,169.51a139.5,139.5,0,0,0,6.43,15.05c.53,1.1,1,2.08,1.42,2.87.7,1.39,1.14,2.23,1.14,2.23l15-8.32s-.19-.63-.53-1.69c-.26-.8-.6-1.85-1-3.06-2.5-7.13-7.61-19.85-12.62-20.58C337.82,154.92,332.43,160.52,335.47,169.51Z" style="fill:#6AE16C"></path><path d="M332.09,154.33a147.89,147.89,0,0,0-16.85,0l-.95.1a3.14,3.14,0,0,0-1.1,2.84c.43,1.67,2.72,2.23,4.73,2.46a9.66,9.66,0,0,0,.42,2.18l.65,1.89,1.12-1.66a9.56,9.56,0,0,1,2.27-2.24c9.79-.27,11.26-5.05,11.32-5.26l.06-.21Z" style="fill:#fff"></path><path d="M331.73,135.43l-4.51,3.74-6.14,5.1a19.92,19.92,0,0,1,.39,2.48c.33,3.33-.53,6.36-5.43,7.52,0,0-5.82,3.85,2.81,4.55a11.59,11.59,0,0,0,.43,2.76,10.74,10.74,0,0,1,2.78-2.67c9.43-.17,10.68-4.54,10.68-4.54C329.07,150.75,330.48,140.86,331.73,135.43Z" style="fill:#ce7a63"></path><path d="M321.08,144.27a19.92,19.92,0,0,1,.39,2.48c2.29-.46,5.35-2.9,5.67-5.24a10.66,10.66,0,0,0,.08-2.34Z" style="opacity:0.2"></path><path d="M316.91,116.48c-3.65,1.66-5.69,12-1,14.16S323.83,113.36,316.91,116.48Z" style="fill:#263238"></path><path d="M333.59,127.62c-1.57,7.21-2.12,11.5-6.38,14.79a9.6,9.6,0,0,1-15.52-6.91c-.55-6.71,2.1-17.37,9.69-19.41A9.7,9.7,0,0,1,333.59,127.62Z" style="fill:#ce7a63"></path><path d="M335,132.24a.14.14,0,0,0,.11,0,.25.25,0,0,0,.16-.31c-.72-2.17-8.53-4.62-9.42-4.89a32.92,32.92,0,0,0-7.81-1.24,2.34,2.34,0,0,0-2-.25,23.91,23.91,0,0,0-5.1-.65.25.25,0,0,0-.25.25.24.24,0,0,0,.25.25,22.8,22.8,0,0,1,5,.65h.13a1.78,1.78,0,0,1,1.64.19.23.23,0,0,0,.16.06,32.79,32.79,0,0,1,7.75,1.21c2.35.72,8.55,2.95,9.1,4.58A.24.24,0,0,0,335,132.24Z" style="fill:#263238"></path><path d="M321.09,133l.23,0a3.44,3.44,0,0,0,2.81-.92c1.66-1.62,1.51-4.76,1.5-4.9a.11.11,0,0,0-.13-.11.12.12,0,0,0-.12.13s.16,3.16-1.42,4.7a3.22,3.22,0,0,1-2.62.85,3.13,3.13,0,0,1-2.34-1.21c-1.45-1.91-.77-5.46-.76-5.49a.12.12,0,0,0-.1-.15.12.12,0,0,0-.14.1c0,.15-.72,3.69.8,5.69A3.25,3.25,0,0,0,321.09,133Z" style="fill:#263238"></path><path d="M312.32,131.68a2.67,2.67,0,0,0,2.16-.58c1.71-1.45,1.65-5,1.65-5.12a.13.13,0,1,0-.25,0s.06,3.54-1.57,4.92a2.46,2.46,0,0,1-2.17.49,1.71,1.71,0,0,1-1.24-.86c-1-1.73.35-5.31.36-5.35a.14.14,0,0,0-.07-.16.13.13,0,0,0-.16.07c-.06.16-1.37,3.74-.35,5.56a2,2,0,0,0,1.41,1Z" style="fill:#263238"></path><path d="M342,120.47c3.5-4.15-2.16-9-9.63-7.3-4.83,1.08-11.13-3.82-12-8.13-6.94-.28-9.95,6.43-8.33,10.43a9.81,9.81,0,0,0,1,1.88A10.47,10.47,0,0,1,310.7,111c-.7,4.88,2.8,9.76,6.92,9.84,4.65,1.71,10.39.54,12.59,2-1.87,3.89-.46,10.19,1.68,11.27,2.39,2,5.89,0,9.2-4.27C343.47,126.82,345.46,122,342,120.47Z" style="fill:#263238"></path><path d="M335.25,135.14a7.89,7.89,0,0,1-4.58,2.72c-2.27.39-2.78-1.71-1.63-3.75,1-1.83,3.48-4.24,5.51-3.7S336.72,133.37,335.25,135.14Z" style="fill:#ce7a63"></path><path d="M321.49,128.33c-.09.6-.48,1-.87,1s-.63-.56-.54-1.15.48-1,.87-1S321.58,127.74,321.49,128.33Z" style="fill:#263238"></path><path d="M314.78,127.54c-.09.59-.48,1-.87,1s-.63-.56-.54-1.15.48-1,.87-1S314.87,127,314.78,127.54Z" style="fill:#263238"></path><path d="M317.59,128.08a22.42,22.42,0,0,1-3.62,4.73,3.4,3.4,0,0,0,2.76.86Z" style="fill:#ba4d3c"></path><path d="M318.91,135.55a5.2,5.2,0,0,0,3.73-1.53.17.17,0,0,0,0-.25.16.16,0,0,0-.24,0,5,5,0,0,1-4.13,1.37.18.18,0,0,0,0,.35A5.58,5.58,0,0,0,318.91,135.55Z" style="fill:#263238"></path><path d="M324.62,126.42a.33.33,0,0,0,.17,0,.36.36,0,0,0,.14-.48,3.39,3.39,0,0,0-2.63-1.78.36.36,0,1,0,0,.71,2.64,2.64,0,0,1,2,1.41A.36.36,0,0,0,324.62,126.42Z" style="fill:#263238"></path><path d="M313,124.9a.36.36,0,0,0,.29-.16,2.94,2.94,0,0,1,2.22-1.34.35.35,0,0,0,.35-.35.35.35,0,0,0-.35-.35h0a3.63,3.63,0,0,0-2.8,1.65.34.34,0,0,0,.09.48A.31.31,0,0,0,313,124.9Z" style="fill:#263238"></path><path d="M342.3,214.47l-7.39-1.28,3.79,8.54s6.74,0,6.43-3.51Z" style="fill:#ce7a63"></path><polygon points="329.41 217.48 332.88 224.38 338.7 221.73 334.91 213.19 329.41 217.48" style="fill:#ce7a63"></polygon></g></svg>